<?xml version="1.0" encoding="utf-8"?>
<!-- Generator: Adobe Illustrator 26.0.3, SVG Export Plug-In . SVG Version: 6.00 Build 0)  -->
<svg version="1.1" id="Calque_1" xmlns="http://www.w3.org/2000/svg" xmlns:xlink="http://www.w3.org/1999/xlink" x="0px" y="0px"
	 viewBox="0 0 26.4 21.1" style="enable-background:new 0 0 26.4 21.1;" xml:space="preserve">
<style type="text/css">
	.st0{fill:#191919;}
</style>
<path id="Icon_awesome-user-plus" class="st0" d="M25.7,8.6h-2.6V5.9c0-0.4-0.3-0.7-0.7-0.7h-1.3c-0.4,0-0.7,0.3-0.7,0.7v2.6h-2.6
	c-0.4,0-0.7,0.3-0.7,0.7v1.3c0,0.4,0.3,0.7,0.7,0.7h2.6v2.6c0,0.4,0.3,0.7,0.7,0.7h1.3c0.4,0,0.7-0.3,0.7-0.7v-2.6h2.6
	c0.4,0,0.7-0.3,0.7-0.7V9.2C26.4,8.9,26.1,8.6,25.7,8.6z M9.2,10.5c2.9,0,5.3-2.4,5.3-5.3S12.1,0,9.2,0S4,2.4,4,5.3
	S6.3,10.5,9.2,10.5L9.2,10.5z M12.9,11.9h-0.7c-1.9,0.9-4.1,0.9-6,0H5.5c-3.1,0-5.5,2.5-5.5,5.5v1.7c0,1.1,0.9,2,2,2c0,0,0,0,0,0
	h14.5c1.1,0,2-0.9,2-2c0,0,0,0,0,0v-1.7C18.5,14.3,16,11.9,12.9,11.9z"/>
</svg>
