<?xml version="1.0" encoding="utf-8"?>
<!-- Generator: Adobe Illustrator 26.0.3, SVG Export Plug-In . SVG Version: 6.00 Build 0)  -->
<svg version="1.1" id="Calque_1" xmlns="http://www.w3.org/2000/svg" xmlns:xlink="http://www.w3.org/1999/xlink" x="0px" y="0px"
	 viewBox="0 0 20.8 18.3" style="enable-background:new 0 0 20.8 18.3;" xml:space="preserve">
<style type="text/css">
	.st0{fill:#E64E0C;}
</style>
<path class="st0" d="M20.6,4.6c-0.6-2.4-2.8-4.2-5.2-4.4l-1.1,0c-0.2,0-0.4,0.1-0.5,0.1c-0.2,0-0.4,0.1-0.6,0.1
	c-1,0.2-2,0.8-2.8,1.5l0,0c0,0,0,0,0,0c-0.1-0.1-0.2-0.2-0.3-0.3C9.1,0.7,7.8,0.3,6.8,0l0,0L5.5,0C5.2,0.1,5,0.1,4.7,0.2
	C4.5,0.3,4.2,0.4,4,0.4C0.9,1.5-0.7,4.9,0.3,8c0.5,1.6,1.3,2.9,2.4,4.1c2,2.4,4.4,4.4,7.1,6c0.1,0.1,0.3,0.2,0.5,0.2
	c0.2,0,0.4-0.1,0.6-0.2c0.4-0.4,0.9-0.7,1.4-1c0.2-0.1,0.4-0.2,0.5-0.3c2.2-1.4,4.1-3.2,5.6-5.1c1-1.1,1.7-2.4,2.1-3.8
	c0.1-0.3,0.2-0.6,0.2-0.9c0-0.2,0-0.3,0.1-0.4l0-0.8C20.8,5.4,20.7,5,20.6,4.6z M18.6,8.9c-0.6,1.2-1.4,2.3-2.4,3.3
	c-2.1,2-3.9,3.4-5.8,4.6h-0.1c-2.6-1.7-4.9-3.6-6.8-5.8c-0.8-0.9-1.4-2-1.9-3.4C1.6,7,1.5,6.6,1.5,6.2c0-1.5,0.7-2.8,2-3.8
	c0.9-0.7,2.2-1,3.4-0.8c1.2,0.2,2.3,0.8,3,1.8c0.1,0.2,0.3,0.5,0.6,0.5c0.2,0,0.6-0.1,0.7-0.3c0.8-1,1.9-1.7,3-1.9
	c2.5-0.3,4.7,1.3,5.2,3.7C19.4,6.7,19.2,7.8,18.6,8.9z"/>
</svg>
