<?xml version="1.0" encoding="utf-8"?>
<!-- Generator: Adobe Illustrator 26.0.3, SVG Export Plug-In . SVG Version: 6.00 Build 0)  -->
<svg version="1.1" id="Calque_1" xmlns="http://www.w3.org/2000/svg" xmlns:xlink="http://www.w3.org/1999/xlink" x="0px" y="0px"
	 viewBox="0 0 19.6 19.6" style="enable-background:new 0 0 19.6 19.6;" xml:space="preserve">
<style type="text/css">
	.st0{fill:#E64E0C;}
</style>
<g id="Icon_feather-send" transform="translate(0.7 0.99)">
	<path class="st0" d="M8.2,10.4c-0.2,0-0.4-0.1-0.5-0.2c-0.3-0.3-0.3-0.7,0-1l10-10c0.3-0.3,0.7-0.3,1,0c0.3,0.3,0.3,0.7,0,1l-10,10
		C8.5,10.3,8.4,10.4,8.2,10.4z"/>
	<path class="st0" d="M11.8,18.6c-0.3,0-0.5-0.2-0.6-0.4l-3.5-7.9l-7.9-3.5C-0.5,6.6-0.7,6.3-0.7,6c0-0.3,0.2-0.5,0.5-0.6L17.9-1
		c0.3-0.1,0.5,0,0.7,0.2c0.2,0.2,0.3,0.5,0.2,0.7l-6.4,18.2C12.4,18.4,12.1,18.6,11.8,18.6C11.8,18.6,11.8,18.6,11.8,18.6z M1.9,6.1
		l6.6,2.9c0.2,0.1,0.3,0.2,0.4,0.4l2.9,6.6L17,0.9L1.9,6.1z"/>
</g>
</svg>
