<?xml version="1.0" encoding="utf-8"?>
<!-- Generator: Adobe Illustrator 26.0.3, SVG Export Plug-In . SVG Version: 6.00 Build 0)  -->
<svg version="1.1" id="Calque_1" xmlns="http://www.w3.org/2000/svg" xmlns:xlink="http://www.w3.org/1999/xlink" x="0px" y="0px"
	 viewBox="0 0 20 24.5" style="enable-background:new 0 0 20 24.5;" xml:space="preserve">
<style type="text/css">
	.st0{clip-path:url(#SVGID_00000118373390941354137370000004182319602463586464_);}
</style>
<g>
	<defs>
		<rect id="SVGID_1_" x="0" width="20" height="24.5"/>
	</defs>
	<clipPath id="SVGID_00000163060884625593091290000010428303414885892742_">
		<use xlink:href="#SVGID_1_"  style="overflow:visible;"/>
	</clipPath>
	
		<g id="Groupe_273" transform="translate(0 0)" style="clip-path:url(#SVGID_00000163060884625593091290000010428303414885892742_);">
		<path id="Tracé_54" d="M16.6,13.1c0-1.9,1-3.7,2.7-4.7c-1-1.5-2.7-2.4-4.5-2.4c-2,0-3.7,1.1-4.7,1.1c-1,0-2.4-1.2-4-1.1
			C4,6,2.1,7.2,1,9c-0.7,1.3-1.1,2.9-1,4.4c0.1,2.8,1,5.6,2.6,8c1,1.5,2.2,3.1,3.9,3.1c1.5,0,2.1-1,4-1c1.8,0,2.4,1,4,1
			c1.7,0,2.8-1.5,3.8-3c0.7-1.1,1.3-2.2,1.7-3.5C18,17.1,16.7,15.2,16.6,13.1"/>
		<path id="Tracé_55" d="M13.6,3.8C14.5,2.8,15,1.4,14.9,0c-1.4,0.1-2.8,0.7-3.7,1.8c-0.9,1-1.4,2.4-1.2,3.8
			C11.4,5.7,12.8,5,13.6,3.8"/>
	</g>
</g>
</svg>
