<?xml version="1.0" encoding="utf-8"?>
<!-- Generator: Adobe Illustrator 26.0.3, SVG Export Plug-In . SVG Version: 6.00 Build 0)  -->
<svg version="1.1" id="Calque_1" xmlns="http://www.w3.org/2000/svg" xmlns:xlink="http://www.w3.org/1999/xlink" x="0px" y="0px"
	 viewBox="0 0 17.4 14.9" style="enable-background:new 0 0 17.4 14.9;" xml:space="preserve">
<style type="text/css">
	.st0{fill:#C9C9C9;}
</style>
<path id="Icon_ionic-md-eye-off" class="st0" d="M8.7,3.1c2.2,0,3.9,1.8,4,3.9c0,0.5-0.1,1-0.3,1.4l2.3,2.3c1.2-1,2.1-2.3,2.7-3.7
	c-1.9-4.7-7.1-7-11.9-5.3l1.7,1.7C7.7,3.2,8.2,3.1,8.7,3.1z M0.8,1l1.8,1.8L3,3.2c-1.3,1-2.3,2.4-3,3.9c1.9,4.8,7.4,7.1,12.2,5.2
	l0.3,0.3l2.3,2.3l1-1L1.8,0L0.8,1z M5.2,5.3l1.2,1.2c0,0.2-0.1,0.3-0.1,0.5c0,1.3,1.1,2.4,2.4,2.4c0,0,0,0,0,0c0.2,0,0.3,0,0.5-0.1
	l1.2,1.2c-1.9,1-4.3,0.2-5.3-1.8C4.9,8.3,4.8,7.7,4.8,7.1C4.8,6.5,4.9,5.9,5.2,5.3L5.2,5.3z M8.6,4.7l2.5,2.5l0-0.1
	c0-1.3-1.1-2.4-2.4-2.4c0,0,0,0,0,0L8.6,4.7z"/>
</svg>
