<?xml version="1.0" encoding="utf-8"?>
<!-- Generator: Adobe Illustrator 26.0.3, SVG Export Plug-In . SVG Version: 6.00 Build 0)  -->
<svg version="1.1" id="Calque_1" xmlns="http://www.w3.org/2000/svg" xmlns:xlink="http://www.w3.org/1999/xlink" x="0px" y="0px"
	 viewBox="0 0 22 22" style="enable-background:new 0 0 22 22;" xml:space="preserve">
<style type="text/css">
	.st0{clip-path:url(#SVGID_00000043450123459169208040000015384674192647442582_);}
	.st1{fill:#3F51B5;}
	.st2{fill:#FFFFFF;}
</style>
<g>
	<defs>
		<rect id="SVGID_1_" width="22" height="22"/>
	</defs>
	<clipPath id="SVGID_00000076567026809446207460000014623531726502528187_">
		<use xlink:href="#SVGID_1_"  style="overflow:visible;"/>
	</clipPath>
	<g id="Groupe_270" style="clip-path:url(#SVGID_00000076567026809446207460000014623531726502528187_);">
		<path id="Rectangle_94" class="st1" d="M5,0h12c2.8,0,5,2.2,5,5v12c0,2.8-2.2,5-5,5H5c-2.8,0-5-2.2-5-5V5C0,2.2,2.2,0,5,0z"/>
		<path id="Tracé_53" class="st2" d="M14.3,11.6h-2.1v7.9h-3v-7.9H7.3V9.1h1.8V7.7c0-2.1,0.9-3.4,3.4-3.4h2.1v2.4h-1.4
			c-1,0-1,0.4-1,1.1v1.4h2.4L14.3,11.6z"/>
	</g>
</g>
</svg>
