<?xml version="1.0" encoding="utf-8"?>
<!-- Generator: Adobe Illustrator 26.0.3, SVG Export Plug-In . SVG Version: 6.00 Build 0)  -->
<svg version="1.1" id="Calque_1" xmlns="http://www.w3.org/2000/svg" xmlns:xlink="http://www.w3.org/1999/xlink" x="0px" y="0px"
	 viewBox="0 0 22 22" style="enable-background:new 0 0 22 22;" xml:space="preserve">
<style type="text/css">
	.st0{clip-path:url(#SVGID_00000111156562240993927010000011980657168435673008_);}
	.st1{fill:#FBC02D;}
	.st2{fill:#E53935;}
	.st3{fill:#4CAF50;}
	.st4{fill:#1565C0;}
</style>
<g>
	<defs>
		<rect id="SVGID_1_" y="0" width="22" height="22"/>
	</defs>
	<clipPath id="SVGID_00000062914950035420210710000008313402577142111660_">
		<use xlink:href="#SVGID_1_"  style="overflow:visible;"/>
	</clipPath>
	<g id="Groupe_267" style="clip-path:url(#SVGID_00000062914950035420210710000008313402577142111660_);">
		<path id="Tracé_49" class="st1" d="M21.8,8.8h-0.9v0H11v4.4h6.2c-1.2,3.4-5,5.2-8.4,4c-3.4-1.2-5.2-5-4-8.4s5-5.2,8.4-4
			c0.8,0.3,1.6,0.7,2.2,1.3L18.5,3C14-1.2,7.1-0.9,3,3.5s-3.9,11.4,0.6,15.5s11.4,3.9,15.5-0.6c1.9-2,2.9-4.7,2.9-7.5
			C22,10.3,21.9,9.6,21.8,8.8"/>
		<path id="Tracé_50" class="st2" d="M1.3,5.9l3.6,2.7c1.4-3.4,5.2-5,8.6-3.7c0.7,0.3,1.4,0.7,1.9,1.2L18.5,3
			C14.1-1.2,7.1-0.9,3,3.5C2.3,4.2,1.7,5,1.3,5.9"/>
		<path id="Tracé_51" class="st3" d="M11,22c2.7,0,5.4-1,7.4-2.9L15,16.3c-2.9,2.2-7,1.6-9.2-1.3c-0.4-0.5-0.7-1.1-1-1.8L1.2,16
			C3.1,19.7,6.9,22,11,22"/>
		<path id="Tracé_52" class="st4" d="M21.8,8.8L21.8,8.8L11,8.8v4.4h6.2c-0.4,1.2-1.2,2.3-2.2,3.1l0,0l3.4,2.9
			c2.3-2.1,3.7-5,3.6-8.1C22,10.3,21.9,9.6,21.8,8.8"/>
	</g>
</g>
</svg>
