<?xml version="1.0" encoding="utf-8"?>
<!-- Generator: Adobe Illustrator 26.0.3, SVG Export Plug-In . SVG Version: 6.00 Build 0)  -->
<svg version="1.1" id="Calque_1" xmlns="http://www.w3.org/2000/svg" xmlns:xlink="http://www.w3.org/1999/xlink" x="0px" y="0px"
	 viewBox="0 0 21.4 19.1" style="enable-background:new 0 0 21.4 19.1;" xml:space="preserve">
<style type="text/css">
	.st0{fill:#E64E0C;}
	.st1{fill:#FFFFFF;}
</style>
<g id="Groupe_2330" transform="translate(0)">
	<g>
		<g id="Groupe_2330-2" transform="translate(0 0)">
			<path class="st0" d="M16.6,19.1c-0.2,0-0.3,0-0.4-0.1l-4.6-3.5H2.9c-1.6,0-2.9-1.3-2.9-2.9V2.9c0-0.8,0.3-1.5,0.8-2
				C1.4,0.3,2.1,0,2.9,0h15.7l0,0c1.6,0,2.9,1.3,2.9,2.9l0,0v9.7c0,1.6-1.3,2.9-2.9,2.9h-1.3v3c0,0.3-0.2,0.5-0.4,0.6
				C16.8,19.1,16.7,19.1,16.6,19.1z"/>
			<path class="st1" d="M17.2,6.9H4.9c-0.4,0-0.7-0.3-0.7-0.7s0.3-0.7,0.7-0.7h12.3c0.4,0,0.7,0.3,0.7,0.7S17.6,6.9,17.2,6.9z"/>
			<path class="st1" d="M11.7,9.7H4.9C4.5,9.7,4.2,9.4,4.2,9s0.3-0.7,0.7-0.7h6.8c0.4,0,0.7,0.3,0.7,0.7S12.1,9.7,11.7,9.7z"/>
		</g>
	</g>
</g>
</svg>
