<?xml version="1.0" encoding="utf-8"?>
<!-- Generator: Adobe Illustrator 26.0.3, SVG Export Plug-In . SVG Version: 6.00 Build 0)  -->
<svg version="1.1" id="Calque_1" xmlns="http://www.w3.org/2000/svg" xmlns:xlink="http://www.w3.org/1999/xlink" x="0px" y="0px"
	 viewBox="0 0 19.9 18.5" style="enable-background:new 0 0 19.9 18.5;" xml:space="preserve">
<style type="text/css">
	.st0{fill:#E64E0C;}
</style>
<g id="Groupe_822" transform="translate(0 0)">
	<g>
		<g id="Groupe_822-2">
			<path id="Tracé_1598" class="st0" d="M4.3,8.5c2.4,0,4.3-1.9,4.3-4.3S6.6,0,4.3,0S0,1.9,0,4.3c0,0,0,0,0,0
				C0,6.6,1.9,8.5,4.3,8.5 M4.3,2c1.3,0,2.3,1,2.3,2.3s-1,2.3-2.3,2.3S2,5.5,2,4.3C2,3,3,2,4.3,2"/>
			<path id="Tracé_1599" class="st0" d="M18.9,5.8c0.6,0,1-0.4,1-1s-0.4-1-1-1h-7.4c-0.6,0-1,0.4-1,1s0.4,1,1,1H18.9z"/>
			<path id="Tracé_1600" class="st0" d="M15.6,10c-2.4,0-4.3,1.9-4.3,4.3s1.9,4.3,4.3,4.3s4.3-1.9,4.3-4.3c0,0,0,0,0,0
				C19.9,11.9,18,10,15.6,10 M15.6,16.5c-1.3,0-2.3-1-2.3-2.3s1-2.3,2.3-2.3s2.3,1,2.3,2.3C17.9,15.5,16.9,16.5,15.6,16.5"/>
			<path id="Tracé_1601" class="st0" d="M8.4,13.8H1c-0.6,0-1,0.4-1,1s0.4,1,1,1h7.4c0.6,0,1-0.4,1-1S8.9,13.8,8.4,13.8"/>
		</g>
	</g>
</g>
</svg>
