<?xml version="1.0" encoding="utf-8"?>
<!-- Generator: Adobe Illustrator 26.0.3, SVG Export Plug-In . SVG Version: 6.00 Build 0)  -->
<svg version="1.1" id="Calque_1" xmlns="http://www.w3.org/2000/svg" xmlns:xlink="http://www.w3.org/1999/xlink" x="0px" y="0px"
	 viewBox="0 0 23.7 23.7" style="enable-background:new 0 0 23.7 23.7;" xml:space="preserve">
<style type="text/css">
	.st0{fill:#1E88E5;}
	.st1{fill:#FBC02D;}
	.st2{fill:#4CAF50;}
	.st3{fill:#E53935;}
	.st4{fill:#1565C0;}
</style>
<g id="Groupe_876" transform="translate(0 0.413)">
	<path id="Tracé_58" class="st0" d="M12.9,9.4l0.7,0.9l1-0.8v5.5h1.1V7.9h-0.9L12.9,9.4z"/>
	<g id="Groupe_302" transform="translate(0 -0.414)">
		<g>
			<g id="Groupe_301">
				<path id="Tracé_59" class="st0" d="M11.1,11.7c0.4-0.4,0.7-0.9,0.7-1.5c0-1.2-1.1-2.1-2.2-2.1c-1,0-1.9,0.6-2.2,1.6L8.4,10
					c0.2-0.5,0.6-0.8,1.1-0.8c0.6,0,1.1,0.4,1.1,0.9c-0.1,0.6-0.6,1-1.1,0.9H8.9v1.1h0.7c0.7,0,1.2,0.4,1.3,1.1
					c-0.1,0.6-0.6,1.1-1.3,1.1c-0.6,0-1.1-0.4-1.3-0.9l-1.1,0.2c0.2,1.1,1.2,1.9,2.4,1.9c1.3,0,2.3-0.9,2.4-2.2
					C12,12.7,11.7,12.1,11.1,11.7"/>
				<path id="Tracé_60" class="st1" d="M18.4,23.7H5.3L4.6,21l0.7-2.6h13.1l0.7,2.6L18.4,23.7z"/>
				<path id="Tracé_61" class="st2" d="M21,19.1l2.6-0.7V5.3L21,4.6l-2.6,0.7v13.1L21,19.1z"/>
				<path id="Tracé_62" class="st0" d="M18.4,5.3l0.7-2.6L18.4,0H2C0.9,0,0,0.9,0,2c0,0,0,0,0,0v16.4l2.6,0.7l2.6-0.7V5.3H18.4z"/>
				<path id="Tracé_63" class="st3" d="M18.4,18.4v5.3l5.3-5.3H18.4z"/>
				<path id="Tracé_64" class="st4" d="M21.7,0h-3.3v5.3h5.3V2C23.7,0.9,22.8,0,21.7,0C21.7,0,21.7,0,21.7,0"/>
				<path id="Tracé_65" class="st4" d="M2,23.7h3.3v-5.3H0v3.3C0,22.8,0.9,23.7,2,23.7C2,23.7,2,23.7,2,23.7"/>
			</g>
		</g>
	</g>
</g>
</svg>
