<?xml version="1.0" encoding="utf-8"?>
<!-- Generator: Adobe Illustrator 26.0.3, SVG Export Plug-In . SVG Version: 6.00 Build 0)  -->
<svg version="1.1" id="Calque_1" xmlns="http://www.w3.org/2000/svg" xmlns:xlink="http://www.w3.org/1999/xlink" x="0px" y="0px"
	 viewBox="0 0 15.9 15.9" style="enable-background:new 0 0 15.9 15.9;" xml:space="preserve">
<style type="text/css">
	.st0{opacity:0.243;}
</style>
<g id="Icon_feather-search" transform="translate(0.5 0.5)" class="st0">
	<path d="M6.6,13.7c-3.8,0-7.1-3.3-7.1-7.1c0-3.8,3.3-7.1,7.1-7.1c3.8,0,7.1,3.3,7.1,7.1C13.7,10.4,10.4,13.7,6.6,13.7z M6.6,0.5
		c-3.3,0-6.1,2.8-6.1,6.1c0,3.3,2.8,6.1,6.1,6.1c3.3,0,6.1-2.8,6.1-6.1C12.7,3.3,9.9,0.5,6.6,0.5z"/>
	<path d="M14.9,15.4c-0.1,0-0.3,0-0.4-0.1l-3.6-3.6c-0.2-0.2-0.2-0.5,0-0.7s0.5-0.2,0.7,0l3.6,3.6c0.2,0.2,0.2,0.5,0,0.7
		C15.2,15.4,15,15.4,14.9,15.4z"/>
</g>
</svg>
