<?xml version="1.0" encoding="utf-8"?>
<!-- Generator: Adobe Illustrator 26.0.3, SVG Export Plug-In . SVG Version: 6.00 Build 0)  -->
<svg version="1.1" id="Calque_1" xmlns="http://www.w3.org/2000/svg" xmlns:xlink="http://www.w3.org/1999/xlink" x="0px" y="0px"
	 viewBox="0 0 27.4 27.4" style="enable-background:new 0 0 27.4 27.4;" xml:space="preserve">
<style type="text/css">
	.st0{fill:#E64E0C;}
</style>
<g>
	<g id="Groupe_2400-2">
		<path id="Tracé_1919" class="st0" d="M8.2,0h11c0,0,0,0,0,0c1.5,0.2,2.6,1.6,2.4,3.1c0,1.1,0,2.3,0,3.4v0.3H22c0.8,0,1.7,0,2.5,0
			c1.6,0,2.9,1.2,2.9,2.8c0,0,0,0.1,0,0.1c0,2.6,0,5.3,0,7.9c0,1.6-1.2,2.9-2.8,2.9c0,0-0.1,0-0.1,0c-0.8,0-1.7,0-2.5,0h-0.3v0.3
			c0,1.2,0,2.4,0,3.6c0.1,1.6-1.1,2.9-2.7,3c-0.1,0-0.2,0-0.3,0c-3.3,0-6.7,0-10,0c-1.6,0.1-2.9-1.1-3-2.7c0-0.1,0-0.2,0-0.3
			c0-1.2,0-2.4,0-3.6v-0.3H5.4c-0.9,0-1.7,0-2.6,0c-1.2,0-2.3-0.8-2.7-2C0.1,18.4,0,18.2,0,18.1V9.3c0,0,0,0,0-0.1
			c0.2-1.4,1.5-2.5,3-2.4c0.8,0,1.6,0,2.4,0h0.3c0-0.1,0-0.2,0-0.4c0-1.3,0-2.5,0-3.8c0-0.7,0.3-1.4,0.9-1.9C7.1,0.4,7.6,0.1,8.2,0
			 M21.7,19.4c0.1,0,0.2,0,0.3,0c0.8,0,1.6,0,2.4,0c1,0.1,1.8-0.6,1.9-1.6c0-0.1,0-0.2,0-0.3c0-2.6,0-5.1,0-7.7
			c0.1-1-0.6-1.8-1.6-1.9c-0.1,0-0.2,0-0.3,0c-1.2,0-2.4,0-3.6,0C14.9,8,8.9,8,3,8C2,7.9,1.2,8.6,1.1,9.6c0,0.1,0,0.2,0,0.2
			c0,2.6,0,5.2,0,7.7c-0.1,1,0.7,1.8,1.6,1.8c0.1,0,0.2,0,0.2,0c0.8,0,1.6,0,2.5,0c0.1,0,0.2,0,0.3,0v-0.3c0-1.2,0-2.4,0-3.6
			c0-0.3,0.1-0.5,0.3-0.6c0.1,0,0.3-0.1,0.4-0.1c4.8,0,9.6,0,14.4,0c0.1,0,0.1,0,0.2,0c0.3,0,0.6,0.3,0.6,0.6c0,0,0,0,0,0
			c0,0.4,0,0.8,0,1.2C21.7,17.5,21.7,18.4,21.7,19.4 M6.8,16v0.3c0,2.7,0,5.4,0,8.1c-0.1,0.9,0.7,1.8,1.6,1.8c0.1,0,0.2,0,0.2,0
			c3.3,0,6.7,0,10,0c1,0.1,1.8-0.6,1.8-1.6c0-0.1,0-0.2,0-0.3c0-2.7,0-5.4,0-8.1V16H6.8z M6.8,6.8h13.7c0,0,0,0,0-0.1
			c0-1.2,0-2.5,0-3.7c0.1-1-0.6-1.8-1.6-1.9c-0.1,0-0.2,0-0.4,0h-5.9c-1.4,0-2.7,0-4.1,0c-0.9,0-1.7,0.7-1.8,1.6
			C6.8,4.1,6.9,5.4,6.8,6.8"/>
		<path id="Tracé_1920" class="st0" d="M13.1,20.6c1.1,0,2.2,0,3.3,0c0.3,0,0.6,0.2,0.6,0.5c0,0.1,0,0.2-0.1,0.3
			c-0.1,0.2-0.3,0.3-0.6,0.3c-0.8,0-1.6,0-2.4,0c-1.4,0-2.8,0-4.2,0c-0.4,0-0.6-0.2-0.7-0.5c0-0.3,0.2-0.6,0.5-0.6c0,0,0.1,0,0.2,0
			c1,0,1.9,0,2.9,0L13.1,20.6"/>
		<path id="Tracé_1921" class="st0" d="M13.1,22.8h3.2c0.1,0,0.2,0,0.3,0c0.3,0,0.5,0.3,0.5,0.6c0,0.3-0.2,0.5-0.5,0.6
			c-0.1,0-0.1,0-0.2,0H9.8c-0.1,0-0.1,0-0.2,0c-0.3,0-0.5-0.3-0.5-0.6c0-0.3,0.2-0.5,0.5-0.5c0.4,0,0.9,0,1.3,0L13.1,22.8"/>
		<path id="Tracé_1922" class="st0" d="M10.8,19.4c-0.3,0-0.7,0-1,0c-0.4,0-0.7-0.2-0.6-0.6c0-0.3,0.3-0.6,0.6-0.6c0,0,0,0,0.1,0
			c0.7,0,1.4,0,2.1,0c0.3,0,0.6,0.2,0.7,0.5s-0.2,0.6-0.5,0.7c-0.1,0-0.1,0-0.2,0C11.5,19.4,11.2,19.4,10.8,19.4"/>
	</g>
</g>
</svg>
